<svg width="150" height="34" viewBox="0 0 150 34" fill="none" xmlns="http://www.w3.org/2000/svg">
<path d="M34.1045 2.90877H41.0127C44.5106 2.90877 46.8717 5.72305 46.8717 8.45206C46.8717 11.2663 44.5106 14.0806 41.0127 14.0806H36.7279V18.6005H34.1045V2.90877ZM40.7504 11.6928C43.024 11.6928 44.2483 9.98714 44.2483 8.45206C44.2483 6.83171 43.024 5.21136 40.7504 5.21136H36.7279V11.6928H40.7504Z" fill="#323E48"/>
<path d="M47.6587 12.8869C47.6587 9.56089 50.0197 6.91718 53.6925 6.91718C57.4527 6.91718 59.2891 9.98732 59.2891 13.0574V13.6544H50.2821C50.6319 15.6158 52.3808 16.7245 54.7419 16.7245C56.2285 16.7245 57.4527 16.2982 58.5021 15.7011V17.8332C57.5402 18.5154 55.9661 18.9418 54.2171 18.9418C50.5444 18.9418 47.6587 16.554 47.6587 12.8869ZM56.6656 11.693C56.6656 10.499 55.7038 8.96392 53.605 8.96392C51.5938 8.96392 50.457 10.3284 50.3695 11.693H56.6656Z" fill="#323E48"/>
<path d="M61.5623 7.17274H64.1856V11.6074H70.132V7.17274H72.7554V18.6004H70.132V13.8247H64.1856V18.6004H61.5623V7.17274Z" fill="#323E48"/>
<path d="M74.9417 12.8869C74.9417 9.56089 77.3028 6.91718 80.9755 6.91718C84.7357 6.91718 86.5721 9.98732 86.5721 13.0574V13.6544H77.5651C77.9149 15.6158 79.6638 16.7245 82.0249 16.7245C83.5114 16.7245 84.7357 16.2982 85.7851 15.7012V17.8332C84.8231 18.5154 83.2491 18.9418 81.5002 18.9418C77.8274 18.9418 74.9417 16.554 74.9417 12.8869ZM83.9487 11.693C83.9487 10.499 82.9868 8.96392 80.8881 8.96392C78.8768 8.96392 77.74 10.3284 77.6526 11.693H83.9487Z" fill="#323E48"/>
<path d="M88.0581 12.8869C88.0581 9.30508 90.9441 6.91718 94.442 6.91718C95.8408 6.91718 96.8899 7.17302 97.9399 7.68471V9.81669C96.8899 9.30508 95.9284 9.04919 94.7917 9.04919C92.5182 9.04919 90.5944 10.5843 90.5944 12.8869C90.5944 15.1895 92.4305 16.7245 94.7917 16.7245C96.1028 16.7245 97.1528 16.4687 98.1142 15.8717V18.0037C96.9775 18.6007 95.8408 18.9418 94.3543 18.9418C90.9441 18.9418 88.0581 16.4687 88.0581 12.8869Z" fill="#323E48"/>
<path d="M99.4272 12.8869C99.4272 9.30508 102.313 6.91718 105.811 6.91718C107.21 6.91718 108.259 7.17302 109.309 7.68471V9.81669C108.259 9.30508 107.298 9.04919 106.161 9.04919C103.887 9.04919 101.964 10.5843 101.964 12.8869C101.964 15.1895 103.8 16.7245 106.161 16.7245C107.472 16.7245 108.522 16.4687 109.484 15.8717V18.0037C108.347 18.6007 107.21 18.9418 105.724 18.9418C102.401 18.9418 99.4272 16.4687 99.4272 12.8869Z" fill="#323E48"/>
<path d="M123.825 16.4687V18.3449C123.475 18.6007 122.863 18.686 122.338 18.686C121.202 18.686 120.239 18.1743 119.89 17.0657C119.016 18.0037 117.616 18.8566 115.605 18.8566C113.157 18.8566 111.233 17.4921 111.233 15.0189C111.233 12.4605 113.157 11.693 115.692 11.693C117.442 11.693 119.715 11.693 119.715 11.693V11.5223C119.715 9.56089 118.053 9.04919 116.305 9.04919C114.905 9.04919 113.506 9.56089 112.632 10.0726V7.85527C113.506 7.42886 114.818 6.91718 116.917 6.91718C120.065 6.91718 122.338 8.36695 122.338 11.2665V15.5306C122.338 16.2128 122.776 16.6392 123.3 16.6392C123.3 16.6392 123.563 16.6392 123.825 16.4687ZM119.54 13.6544C119.54 13.6544 117.704 13.6544 116.479 13.6544C114.818 13.6544 113.681 13.9956 113.681 15.1041C113.681 16.3834 114.818 16.8098 116.217 16.8098C117.616 16.8098 118.928 16.1275 119.54 15.4453V13.6544Z" fill="#323E48"/>
<path d="M125.66 7.17274H128.284V11.6074H134.23V7.17274H136.854V18.6004H134.23V13.8247H128.284V18.6004H125.66V7.17274Z" fill="#323E48"/>
<path d="M139.04 12.8869C139.04 9.30508 141.926 6.91718 145.424 6.91718C146.823 6.91718 147.872 7.17302 148.922 7.68471V9.81669C147.872 9.30508 146.911 9.04919 145.774 9.04919C143.5 9.04919 141.576 10.5843 141.576 12.8869C141.576 15.1895 143.413 16.7245 145.774 16.7245C147.085 16.7245 148.135 16.4687 149.096 15.8717V18.0037C147.96 18.6007 146.823 18.9418 145.336 18.9418C141.926 18.9418 139.04 16.4687 139.04 12.8869Z" fill="#323E48"/>
<path d="M34.1045 24.7407H35.3287V26.958L37.4274 24.7407H38.9141L36.4655 27.2991L39.3512 30.3692H37.8647L35.4162 27.8108V30.3692H34.1045V24.7407Z" fill="#323E48"/>
<path d="M40.9255 24.7407H43.4615C44.6857 24.7407 45.4728 25.423 45.4728 26.4464C45.4728 27.4697 44.6857 28.1519 43.4615 28.1519H42.1498V30.3692H40.9255V24.7407ZM43.3741 27.1286C43.8987 27.1286 44.2485 26.8727 44.2485 26.4464C44.2485 26.0199 43.8987 25.764 43.3741 25.764H42.1498V27.1286H43.3741Z" fill="#323E48"/>
<path d="M47.2209 24.7407H51.4184V25.764H48.3578V26.8727H50.8063V27.8961H48.3578V29.3459H51.5933V30.3692H47.2209V24.7407Z" fill="#323E48"/>
<path d="M53.1678 29.3462H53.6924C54.2172 28.5787 54.4795 27.5553 54.4795 25.6791V24.8264H58.502V29.4316H59.2891V31.6488H58.1522V30.5401H54.2172V31.6488H53.0803V29.3462H53.1678ZM57.3652 29.3462V25.7644H55.7037C55.7037 26.9583 55.6162 28.1523 55.0916 29.3462H57.3652Z" fill="#323E48"/>
<path d="M61.1245 24.7407H62.3488V28.4078L65.147 24.7407H66.1964V30.3692H65.0597V26.7022L62.0864 30.3692H61.1245V24.7407Z" fill="#323E48"/>
<path d="M72.668 24.7407V25.764H70.8316V30.3692H69.6074V25.764H67.771V24.7407H72.668Z" fill="#323E48"/>
<path d="M4.08209 30.6636H0V13.4097C0 7.53396 4.93648 2.6842 10.9172 2.6842H24.3976V13.3164C24.3976 19.2853 19.4611 24.0418 13.4804 24.0418H6.64526L8.16418 20.0315H13.3854C17.1828 20.0315 20.2205 17.047 20.2205 13.3164V6.69458H10.8223C7.02499 6.69458 3.98715 9.67908 3.98715 13.4097V30.6636H4.08209Z" fill="#D41367"/>
</svg>
